# xmcd CD database file
#
# Track frame offsets:
#	150
#	35006
#	56382
#	88557
#	120309
#	154571
#	193777
#	217436
#	247477
#	279759
#
# Disc length: 3895 seconds
#
# Revision: 0
# Processed by: cddbd v1.5.1PL0 Copyright (c) Steve Scherf et al.
# Submitted via: CDex 1.51
#
DISCID=8e0f350a
DTITLE=GRP All-Star Big Band - Live
DYEAR=1900
DGENRE=Jazz
TTITLE0=Oleo
TTITLE1=Blue Train
TTITLE2=My Man's gone now
TTITLE3=Sing, sing, sing
TTITLE4=Manteca
TTITLE5=Blues for Howard
TTITLE6=Cherokee
TTITLE7=It's wonderful
TTITLE8=Sister Sadie
TTITLE9=GRP Band Introduction by Dave Grusin
EXTD=
EXTT0=
EXTT1=
EXTT2=
EXTT3=
EXTT4=
EXTT5=
EXTT6=
EXTT7=
EXTT8=
EXTT9=
PLAYORDER=
